<?xml version="1.0" encoding="UTF-8"?>
<svg width="571px" height="76px" viewBox="0 0 571 76" version="1.1" xmlns="http://www.w3.org/2000/svg" xmlns:xlink="http://www.w3.org/1999/xlink">
    <!-- Generator: Sketch 51.2 (57519) - http://www.bohemiancoding.com/sketch -->
    <title>Group 2</title>
    <desc>Created with Sketch.</desc>
    <defs>
        <path d="M21.765625,28.1640625 C21.765625,31.0234518 20.7148543,33.2890541 18.6132812,34.9609375 C16.5117082,36.6328209 13.7187674,37.46875 10.234375,37.46875 C6.04685406,37.46875 2.83594867,37.0078171 0.6015625,36.0859375 L0.6015625,33.6953125 C3.07032484,34.7421927 6.21873086,35.265625 10.046875,35.265625 C12.8593891,35.265625 15.0898355,34.6211002 16.7382812,33.3320312 C18.386727,32.0429623 19.2109375,30.351573 19.2109375,28.2578125 C19.2109375,26.960931 18.9375027,25.886723 18.390625,25.0351562 C17.8437473,24.1835895 16.9531312,23.4062535 15.71875,22.703125 C14.4843688,21.9999965 12.671887,21.2421916 10.28125,20.4296875 C6.7812325,19.2265565 4.36328793,17.9257882 3.02734375,16.5273438 C1.69139957,15.1288993 1.0234375,13.2656366 1.0234375,10.9375 C1.0234375,8.37498719 2.02733371,6.28516434 4.03515625,4.66796875 C6.04297879,3.05077316 8.62498422,2.2421875 11.78125,2.2421875 C15.0000161,2.2421875 18.0234234,2.85155641 20.8515625,4.0703125 L19.984375,6.1328125 C17.1406108,4.94530656 14.421888,4.3515625 11.828125,4.3515625 C9.29686234,4.3515625 7.2812575,4.93749414 5.78125,6.109375 C4.2812425,7.28125586 3.53125,8.87498992 3.53125,10.890625 C3.53125,12.1562563 3.76171645,13.1953084 4.22265625,14.0078125 C4.68359605,14.8203166 5.43749477,15.550778 6.484375,16.1992188 C7.53125523,16.8476595 9.32811227,17.6249955 11.875,18.53125 C14.5468884,19.4531296 16.5546808,20.3476519 17.8984375,21.2148438 C19.2421942,22.0820356 20.2226532,23.0664007 20.8398438,24.1679688 C21.4570343,25.2695368 21.765625,26.6015547 21.765625,28.1640625 Z M46.1875,37 L46.1875,20.4765625 C46.1875,17.9140497 45.6484429,16.0507871 44.5703125,14.8867188 C43.4921821,13.7226504 41.8203238,13.140625 39.5546875,13.140625 C36.5077973,13.140625 34.2773508,13.9101486 32.8632812,15.4492188 C31.4492117,16.9882889 30.7421875,19.4843577 30.7421875,22.9375 L30.7421875,37 L28.421875,37 L28.421875,0.53125 L30.7421875,0.53125 L30.7421875,12.1328125 L30.625,15.390625 L30.7890625,15.390625 C31.7421923,13.8593673 32.9453052,12.7500034 34.3984375,12.0625 C35.8515698,11.3749966 37.6562392,11.03125 39.8125,11.03125 C45.5937789,11.03125 48.484375,14.1327815 48.484375,20.3359375 L48.484375,37 L46.1875,37 Z M58.75,11.5234375 L58.75,28.0234375 C58.75,30.5859503 59.2890571,32.4492129 60.3671875,33.6132812 C61.4453179,34.7773496 63.1171762,35.359375 65.3828125,35.359375 C68.4140777,35.359375 70.6445241,34.5937577 72.0742188,33.0625 C73.5039134,31.5312423 74.21875,29.0390798 74.21875,25.5859375 L74.21875,11.5234375 L76.515625,11.5234375 L76.515625,37 L74.546875,37 L74.125,33.484375 L73.984375,33.484375 C72.3281167,36.1406383 69.3828337,37.46875 65.1484375,37.46875 C59.3515335,37.46875 56.453125,34.3672185 56.453125,28.1640625 L56.453125,11.5234375 L58.75,11.5234375 Z M95.9453125,37.46875 C92.0234179,37.46875 89.1640715,36.0000147 87.3671875,33.0625 L87.203125,33.0625 L87.2734375,35.03125 C87.3359378,36.1875058 87.3671875,37.4531181 87.3671875,38.828125 L87.3671875,48.53125 L85.046875,48.53125 L85.046875,11.5234375 L87.015625,11.5234375 L87.4609375,15.15625 L87.6015625,15.15625 C89.3515713,12.4062363 92.1484183,11.03125 95.9921875,11.03125 C99.4297047,11.03125 102.050772,12.160145 103.855469,14.4179688 C105.660165,16.6757925 106.5625,19.9609159 106.5625,24.2734375 C106.5625,28.4609584 105.613291,31.7070197 103.714844,34.0117188 C101.816397,36.3164178 99.2265789,37.46875 95.9453125,37.46875 Z M95.8984375,35.40625 C98.5078255,35.40625 100.527337,34.4375097 101.957031,32.5 C103.386726,30.5624903 104.101562,27.8515799 104.101562,24.3671875 C104.101562,16.8827751 101.398465,13.140625 95.9921875,13.140625 C93.0234227,13.140625 90.843757,13.9570231 89.453125,15.5898438 C88.062493,17.2226644 87.3671875,19.8827941 87.3671875,23.5703125 L87.3671875,24.3203125 C87.3671875,28.3047074 88.0351496,31.148429 89.3710938,32.8515625 C90.7070379,34.554696 92.8827974,35.40625 95.8984375,35.40625 Z M124.515625,37.46875 C120.59373,37.46875 117.734384,36.0000147 115.9375,33.0625 L115.773438,33.0625 L115.84375,35.03125 C115.90625,36.1875058 115.9375,37.4531181 115.9375,38.828125 L115.9375,48.53125 L113.617188,48.53125 L113.617188,11.5234375 L115.585938,11.5234375 L116.03125,15.15625 L116.171875,15.15625 C117.921884,12.4062363 120.718731,11.03125 124.5625,11.03125 C128.000017,11.03125 130.621085,12.160145 132.425781,14.4179688 C134.230478,16.6757925 135.132812,19.9609159 135.132812,24.2734375 C135.132812,28.4609584 134.183603,31.7070197 132.285156,34.0117188 C130.386709,36.3164178 127.796891,37.46875 124.515625,37.46875 Z M124.46875,35.40625 C127.078138,35.40625 129.097649,34.4375097 130.527344,32.5 C131.957038,30.5624903 132.671875,27.8515799 132.671875,24.3671875 C132.671875,16.8827751 129.968777,13.140625 124.5625,13.140625 C121.593735,13.140625 119.414069,13.9570231 118.023438,15.5898438 C116.632806,17.2226644 115.9375,19.8827941 115.9375,23.5703125 L115.9375,24.3203125 C115.9375,28.3047074 116.605462,31.148429 117.941406,32.8515625 C119.27735,34.554696 121.45311,35.40625 124.46875,35.40625 Z M152.476562,37.46875 C148.773419,37.46875 145.886729,36.3281364 143.816406,34.046875 C141.746083,31.7656136 140.710938,28.570333 140.710938,24.4609375 C140.710938,20.3984172 141.710928,17.1445435 143.710938,14.6992188 C145.710947,12.253894 148.406233,11.03125 151.796875,11.03125 C154.79689,11.03125 157.164054,12.0781145 158.898438,14.171875 C160.632821,16.2656355 161.5,19.109357 161.5,22.703125 L161.5,24.578125 L143.148438,24.578125 C143.179688,28.0781425 143.996086,30.7499908 145.597656,32.59375 C147.199227,34.4375092 149.492173,35.359375 152.476562,35.359375 C153.929695,35.359375 155.207026,35.2578135 156.308594,35.0546875 C157.410162,34.8515615 158.804679,34.4140659 160.492188,33.7421875 L160.492188,35.8515625 C159.05468,36.4765656 157.726569,36.9023426 156.507812,37.1289062 C155.289056,37.3554699 153.94532,37.46875 152.476562,37.46875 Z M151.796875,13.09375 C149.343738,13.09375 147.375007,13.9023357 145.890625,15.5195312 C144.406243,17.1367268 143.539064,19.4687348 143.289062,22.515625 L159.039062,22.515625 C159.039062,19.5624852 158.398444,17.2539146 157.117188,15.5898438 C155.835931,13.9257729 154.062511,13.09375 151.796875,13.09375 Z M175.257812,35.40625 C176.72657,35.40625 178.007807,35.2812512 179.101562,35.03125 L179.101562,36.90625 C177.976557,37.2812519 176.679695,37.46875 175.210938,37.46875 C172.960926,37.46875 171.300787,36.8671935 170.230469,35.6640625 C169.160151,34.4609315 168.625,32.5703254 168.625,29.9921875 L168.625,13.5390625 L164.851562,13.5390625 L164.851562,12.1796875 L168.625,11.125 L169.796875,5.359375 L170.992188,5.359375 L170.992188,11.5234375 L178.46875,11.5234375 L178.46875,13.5390625 L170.992188,13.5390625 L170.992188,29.6640625 C170.992188,31.6171973 171.335934,33.0624953 172.023438,34 C172.710941,34.9375047 173.789055,35.40625 175.257812,35.40625 Z M197.664062,37 L197.664062,2.734375 L200.054688,2.734375 L200.054688,34.75 L216.390625,34.75 L216.390625,37 L197.664062,37 Z M237.179688,37 L236.59375,32.96875 L236.40625,32.96875 C235.124994,34.6093832 233.808601,35.7695279 232.457031,36.4492188 C231.105462,37.1289096 229.507822,37.46875 227.664062,37.46875 C225.16405,37.46875 223.218757,36.8281314 221.828125,35.546875 C220.437493,34.2656186 219.742188,32.4921988 219.742188,30.2265625 C219.742188,27.7421751 220.777333,25.8125069 222.847656,24.4375 C224.917979,23.0624931 227.914043,22.3359379 231.835938,22.2578125 L236.6875,22.1171875 L236.6875,20.4296875 C236.6875,18.0078004 236.195317,16.1796937 235.210938,14.9453125 C234.226558,13.7109313 232.640636,13.09375 230.453125,13.09375 C228.093738,13.09375 225.64845,13.7499934 223.117188,15.0625 L222.25,13.046875 C225.046889,11.7343684 227.812486,11.078125 230.546875,11.078125 C233.343764,11.078125 235.433587,11.8046802 236.816406,13.2578125 C238.199226,14.7109448 238.890625,16.9765471 238.890625,20.0546875 L238.890625,37 L237.179688,37 Z M227.804688,35.359375 C230.523451,35.359375 232.667961,34.582039 234.238281,33.0273438 C235.808602,31.4726485 236.59375,29.3125138 236.59375,26.546875 L236.59375,24.0390625 L232.140625,24.2265625 C228.562482,24.3984384 226.011726,24.9570265 224.488281,25.9023438 C222.964836,26.847661 222.203125,28.3203025 222.203125,30.3203125 C222.203125,31.9140705 222.691401,33.1523393 223.667969,34.0351562 C224.644536,34.9179732 226.023429,35.359375 227.804688,35.359375 Z M257.898438,11.03125 C261.460955,11.03125 264.144522,12.1523325 265.949219,14.3945312 C267.753915,16.63673 268.65625,19.9140409 268.65625,24.2265625 C268.65625,28.4609587 267.707041,31.726551 265.808594,34.0234375 C263.910147,36.320324 261.242205,37.46875 257.804688,37.46875 C255.992178,37.46875 254.359382,37.0937538 252.90625,36.34375 C251.453118,35.5937462 250.304692,34.5312569 249.460938,33.15625 L249.25,33.15625 L248.59375,37 L247.140625,37 L247.140625,0.53125 L249.460938,0.53125 L249.460938,9.6953125 C249.460938,11.0703194 249.429688,12.3359317 249.367188,13.4921875 L249.296875,15.484375 L249.460938,15.484375 C250.429692,13.9531173 251.597649,12.8281286 252.964844,12.109375 C254.332038,11.3906214 255.976553,11.03125 257.898438,11.03125 Z M257.851562,13.140625 C254.851547,13.140625 252.703131,13.9999914 251.40625,15.71875 C250.109369,17.4375086 249.460938,20.2734177 249.460938,24.2265625 L249.460938,24.625 C249.460938,28.4687692 250.136712,31.2265541 251.488281,32.8984375 C252.839851,34.5703209 254.945298,35.40625 257.804688,35.40625 C260.585951,35.40625 262.67968,34.4336035 264.085938,32.4882812 C265.492195,30.542959 266.195312,27.7734555 266.195312,24.1796875 C266.195312,16.8202757 263.41409,13.140625 257.851562,13.140625 Z M296.78125,24.2265625 C296.78125,28.3828333 295.773448,31.6288946 293.757812,33.9648438 C291.742177,36.3007929 288.960955,37.46875 285.414062,37.46875 C283.179676,37.46875 281.210946,36.9296929 279.507812,35.8515625 C277.804679,34.7734321 276.500005,33.2265726 275.59375,31.2109375 C274.687495,29.1953024 274.234375,26.8672007 274.234375,24.2265625 C274.234375,20.0702917 275.242177,16.8320429 277.257812,14.5117188 C279.273448,12.1913946 282.039045,11.03125 285.554688,11.03125 C289.054705,11.03125 291.800771,12.2070195 293.792969,14.5585938 C295.785166,16.910168 296.78125,20.132792 296.78125,24.2265625 Z M276.671875,24.2265625 C276.671875,27.72658 277.441399,30.4570214 278.980469,32.4179688 C280.519539,34.3789161 282.695298,35.359375 285.507812,35.359375 C288.320327,35.359375 290.496086,34.3789161 292.035156,32.4179688 C293.574226,30.4570214 294.34375,27.72658 294.34375,24.2265625 C294.34375,20.7109199 293.566414,17.9843847 292.011719,16.046875 C290.457023,14.1093653 288.273452,13.140625 285.460938,13.140625 C282.648423,13.140625 280.480476,14.1054591 278.957031,16.0351562 C277.433586,17.9648534 276.671875,20.6952948 276.671875,24.2265625 Z M313.867188,11.03125 C314.945318,11.03125 316.101556,11.1406239 317.335938,11.359375 L316.890625,13.5859375 C315.82812,13.3203112 314.726568,13.1875 313.585938,13.1875 C311.414052,13.1875 309.632819,14.1093658 308.242188,15.953125 C306.851556,17.7968842 306.15625,20.1249859 306.15625,22.9375 L306.15625,37 L303.835938,37 L303.835938,11.5234375 L305.804688,11.5234375 L306.039062,16.1171875 L306.203125,16.1171875 C307.250005,14.2421781 308.367182,12.925785 309.554688,12.1679688 C310.742193,11.4101525 312.179679,11.03125 313.867188,11.03125 Z M337.984375,37 L337.398438,32.96875 L337.210938,32.96875 C335.929681,34.6093832 334.613288,35.7695279 333.261719,36.4492188 C331.910149,37.1289096 330.312509,37.46875 328.46875,37.46875 C325.968737,37.46875 324.023444,36.8281314 322.632812,35.546875 C321.242181,34.2656186 320.546875,32.4921988 320.546875,30.2265625 C320.546875,27.7421751 321.582021,25.8125069 323.652344,24.4375 C325.722667,23.0624931 328.71873,22.3359379 332.640625,22.2578125 L337.492188,22.1171875 L337.492188,20.4296875 C337.492188,18.0078004 337.000005,16.1796937 336.015625,14.9453125 C335.031245,13.7109313 333.445323,13.09375 331.257812,13.09375 C328.898426,13.09375 326.453138,13.7499934 323.921875,15.0625 L323.054688,13.046875 C325.851576,11.7343684 328.617174,11.078125 331.351562,11.078125 C334.148451,11.078125 336.238274,11.8046802 337.621094,13.2578125 C339.003913,14.7109448 339.695312,16.9765471 339.695312,20.0546875 L339.695312,37 L337.984375,37 Z M328.609375,35.359375 C331.328139,35.359375 333.472648,34.582039 335.042969,33.0273438 C336.613289,31.4726485 337.398438,29.3125138 337.398438,26.546875 L337.398438,24.0390625 L332.945312,24.2265625 C329.36717,24.3984384 326.816414,24.9570265 325.292969,25.9023438 C323.769524,26.847661 323.007812,28.3203025 323.007812,30.3203125 C323.007812,31.9140705 323.496089,33.1523393 324.472656,34.0351562 C325.449224,34.9179732 326.828116,35.359375 328.609375,35.359375 Z M354.671875,35.40625 C356.140632,35.40625 357.42187,35.2812512 358.515625,35.03125 L358.515625,36.90625 C357.390619,37.2812519 356.093757,37.46875 354.625,37.46875 C352.374989,37.46875 350.714849,36.8671935 349.644531,35.6640625 C348.574213,34.4609315 348.039062,32.5703254 348.039062,29.9921875 L348.039062,13.5390625 L344.265625,13.5390625 L344.265625,12.1796875 L348.039062,11.125 L349.210938,5.359375 L350.40625,5.359375 L350.40625,11.5234375 L357.882812,11.5234375 L357.882812,13.5390625 L350.40625,13.5390625 L350.40625,29.6640625 C350.40625,31.6171973 350.749997,33.0624953 351.4375,34 C352.125003,34.9375047 353.203118,35.40625 354.671875,35.40625 Z M385.09375,24.2265625 C385.09375,28.3828333 384.085948,31.6288946 382.070312,33.9648438 C380.054677,36.3007929 377.273455,37.46875 373.726562,37.46875 C371.492176,37.46875 369.523446,36.9296929 367.820312,35.8515625 C366.117179,34.7734321 364.812505,33.2265726 363.90625,31.2109375 C362.999995,29.1953024 362.546875,26.8672007 362.546875,24.2265625 C362.546875,20.0702917 363.554677,16.8320429 365.570312,14.5117188 C367.585948,12.1913946 370.351545,11.03125 373.867188,11.03125 C377.367205,11.03125 380.113271,12.2070195 382.105469,14.5585938 C384.097666,16.910168 385.09375,20.132792 385.09375,24.2265625 Z M364.984375,24.2265625 C364.984375,27.72658 365.753899,30.4570214 367.292969,32.4179688 C368.832039,34.3789161 371.007798,35.359375 373.820312,35.359375 C376.632827,35.359375 378.808586,34.3789161 380.347656,32.4179688 C381.886726,30.4570214 382.65625,27.72658 382.65625,24.2265625 C382.65625,20.7109199 381.878914,17.9843847 380.324219,16.046875 C378.769523,14.1093653 376.585952,13.140625 373.773438,13.140625 C370.960923,13.140625 368.792976,14.1054591 367.269531,16.0351562 C365.746086,17.9648534 364.984375,20.6952948 364.984375,24.2265625 Z M402.179688,11.03125 C403.257818,11.03125 404.414056,11.1406239 405.648438,11.359375 L405.203125,13.5859375 C404.14062,13.3203112 403.039068,13.1875 401.898438,13.1875 C399.726552,13.1875 397.945319,14.1093658 396.554688,15.953125 C395.164056,17.7968842 394.46875,20.1249859 394.46875,22.9375 L394.46875,37 L392.148438,37 L392.148438,11.5234375 L394.117188,11.5234375 L394.351562,16.1171875 L394.515625,16.1171875 C395.562505,14.2421781 396.679682,12.925785 397.867188,12.1679688 C399.054693,11.4101525 400.492179,11.03125 402.179688,11.03125 Z M413.148438,37 L410.828125,37 L410.828125,11.5234375 L413.148438,11.5234375 L413.148438,37 Z M410.5,4.4453125 C410.5,2.945305 410.992183,2.1953125 411.976562,2.1953125 C412.46094,2.1953125 412.839842,2.39062305 413.113281,2.78125 C413.38672,3.17187695 413.523438,3.72655891 413.523438,4.4453125 C413.523438,5.14844102 413.38672,5.70312297 413.113281,6.109375 C412.839842,6.51562703 412.46094,6.71875 411.976562,6.71875 C410.992183,6.71875 410.5,5.96094508 410.5,4.4453125 Z M431.96875,37.46875 C428.265606,37.46875 425.378917,36.3281364 423.308594,34.046875 C421.238271,31.7656136 420.203125,28.570333 420.203125,24.4609375 C420.203125,20.3984172 421.203115,17.1445435 423.203125,14.6992188 C425.203135,12.253894 427.898421,11.03125 431.289062,11.03125 C434.289077,11.03125 436.656241,12.0781145 438.390625,14.171875 C440.125009,16.2656355 440.992188,19.109357 440.992188,22.703125 L440.992188,24.578125 L422.640625,24.578125 C422.671875,28.0781425 423.488273,30.7499908 425.089844,32.59375 C426.691414,34.4375092 428.98436,35.359375 431.96875,35.359375 C433.421882,35.359375 434.699213,35.2578135 435.800781,35.0546875 C436.902349,34.8515615 438.296867,34.4140659 439.984375,33.7421875 L439.984375,35.8515625 C438.546868,36.4765656 437.218756,36.9023426 436,37.1289062 C434.781244,37.3554699 433.437507,37.46875 431.96875,37.46875 Z M431.289062,13.09375 C428.835925,13.09375 426.867195,13.9023357 425.382812,15.5195312 C423.89843,17.1367268 423.031251,19.4687348 422.78125,22.515625 L438.53125,22.515625 C438.53125,19.5624852 437.890631,17.2539146 436.609375,15.5898438 C435.328119,13.9257729 433.554699,13.09375 431.289062,13.09375 Z M463.820312,30.3671875 C463.820312,32.6484489 462.953134,34.4023376 461.21875,35.6289062 C459.484366,36.8554749 457.023453,37.46875 453.835938,37.46875 C450.42967,37.46875 447.726572,36.9453177 445.726562,35.8984375 L445.726562,33.390625 C448.289075,34.6718814 450.992173,35.3125 453.835938,35.3125 C456.351575,35.3125 458.261712,34.8945354 459.566406,34.0585938 C460.8711,33.2226521 461.523438,32.109382 461.523438,30.71875 C461.523438,29.4374936 461.003911,28.3593794 459.964844,27.484375 C458.925776,26.6093706 457.218762,25.7500042 454.84375,24.90625 C452.296862,23.9843704 450.507818,23.1914096 449.476562,22.5273438 C448.445307,21.8632779 447.667971,21.1132854 447.144531,20.2773438 C446.621091,19.4414021 446.359375,18.421881 446.359375,17.21875 C446.359375,15.3124905 447.160148,13.804693 448.761719,12.6953125 C450.363289,11.585932 452.601548,11.03125 455.476562,11.03125 C458.226576,11.03125 460.835925,11.5468698 463.304688,12.578125 L462.4375,14.6875 C459.937487,13.6562448 457.617198,13.140625 455.476562,13.140625 C453.398427,13.140625 451.750006,13.4843716 450.53125,14.171875 C449.312494,14.8593784 448.703125,15.8124939 448.703125,17.03125 C448.703125,18.3593816 449.175777,19.421871 450.121094,20.21875 C451.066411,21.015629 452.914049,21.9062451 455.664062,22.890625 C457.960949,23.7187541 459.632807,24.4648404 460.679688,25.1289062 C461.726568,25.7929721 462.511716,26.5468708 463.035156,27.390625 C463.558596,28.2343792 463.820312,29.2265568 463.820312,30.3671875 Z" id="path-1"></path>
    </defs>
    <g id="Page-1" stroke="none" stroke-width="1" fill="none" fill-rule="evenodd">
        <g id="Desktop-HD" transform="translate(-433.000000, -474.000000)">
            <g id="Group-2" transform="translate(433.000000, 474.000000)">
                <g id="Flask" fill-rule="nonzero">
                    <g id="Group">
                        <path d="M13.8533981,24.9582524 C13.8533981,24.9582524 1.56796117,25.5300971 1.56796117,36.1 C1.56796117,46.6699029 8.70679612,48.3854369 13.8533981,48.9572816 C19,49.5291262 27.4116505,45.507767 31.6359223,41.6524272 C35.8601942,37.7970874 37.0038835,38.276699 37.0038835,38.276699 C37.0038835,38.276699 26.7106796,24.6631068 13.8533981,24.9582524 Z M13.0048544,39.531068 C11.4184466,39.531068 10.1456311,38.2582524 10.1456311,36.6718447 C10.1456311,35.0854369 11.4184466,33.8126214 13.0048544,33.8126214 C14.5912621,33.8126214 15.8640777,35.0854369 15.8640777,36.6718447 C15.8640777,38.2398058 14.5728155,39.531068 13.0048544,39.531068 Z" id="Shape" fill="#9336CE"></path>
                        <g transform="translate(3.504854, 35.970874)" fill="#BF67F7" id="Shape">
                            <path d="M0.774757282,7.69223301 L0.166019417,7.06504854 C0.166019417,7.08349515 0.368932039,7.32330097 0.774757282,7.69223301 Z"></path>
                            <path d="M41.8737864,0.0368932039 C41.8737864,0.0368932039 34.1631068,-0.350485437 23.0213592,9.85048544 C13.3737864,18.6495146 3.32038835,10.1456311 0.774757282,7.69223301 L26.5446602,33.831068 C26.5446602,33.831068 31.7281553,39.9737864 38.4427184,37.7417476 C45.1572816,35.4912621 47.5184466,31.5436893 47.684466,24.607767 C47.868932,17.6533981 48.4407767,1.9368932 48.4407767,1.9368932 C48.4407767,1.9368932 45.876699,0.129126214 41.8737864,0.0368932039 Z M33.4990291,29.5514563 C31.9126214,29.5514563 30.6398058,28.2786408 30.6398058,26.692233 C30.6398058,25.1058252 31.9126214,23.8330097 33.4990291,23.8330097 C35.0854369,23.8330097 36.3582524,25.1058252 36.3582524,26.692233 C36.3582524,28.2786408 35.0669903,29.5514563 33.4990291,29.5514563 Z M38.3504854,18.4097087 C35.5097087,18.4097087 33.2038835,16.1038835 33.2038835,13.2631068 C33.2038835,10.4223301 35.5097087,8.11650485 38.3504854,8.11650485 C41.1912621,8.11650485 43.4970874,10.4223301 43.4970874,13.2631068 C43.4970874,16.1038835 41.1912621,18.4097087 38.3504854,18.4097087 Z"></path>
                        </g>
                        <path d="M41.8553398,55.8194175 C38.2398058,55.8194175 35.2883495,52.8679612 35.2883495,49.2524272 C35.2883495,45.6368932 38.2398058,42.6854369 41.8553398,42.6854369 C45.4708738,42.6854369 48.4223301,45.6368932 48.4223301,49.2524272 C48.4223301,52.8679612 45.4893204,55.8194175 41.8553398,55.8194175 Z M41.8553398,45.5262136 C39.807767,45.5262136 38.1475728,47.1864078 38.1475728,49.2339806 C38.1475728,51.2815534 39.807767,52.9417476 41.8553398,52.9417476 C43.9029126,52.9417476 45.5631068,51.2815534 45.5631068,49.2339806 C45.5631068,47.1864078 43.9029126,45.5262136 41.8553398,45.5262136 Z" id="Shape" fill="#231F20"></path>
                        <path d="M37.0038835,66.961165 C34.6427184,66.961165 32.7242718,65.0427184 32.7242718,62.6815534 C32.7242718,60.3203883 34.6427184,58.4019417 37.0038835,58.4019417 C39.3650485,58.4019417 41.2834951,60.3203883 41.2834951,62.6815534 C41.2834951,65.0242718 39.3650485,66.961165 37.0038835,66.961165 Z M37.0038835,61.2427184 C36.2106796,61.2427184 35.5834951,61.8883495 35.5834951,62.6631068 C35.5834951,63.4563107 36.2291262,64.0834951 37.0038835,64.0834951 C37.7970874,64.0834951 38.4242718,63.4378641 38.4242718,62.6631068 C38.4242718,61.8883495 37.7786408,61.2427184 37.0038835,61.2427184 Z" id="Shape" fill="#231F20"></path>
                        <path d="M13.0048544,40.9514563 C10.6436893,40.9514563 8.72524272,39.0330097 8.72524272,36.6718447 C8.72524272,34.3106796 10.6436893,32.392233 13.0048544,32.392233 C15.3660194,32.392233 17.284466,34.3106796 17.284466,36.6718447 C17.284466,39.0330097 15.3660194,40.9514563 13.0048544,40.9514563 Z M13.0048544,35.2330097 C12.2116505,35.2330097 11.584466,35.8786408 11.584466,36.6533981 C11.584466,37.4466019 12.2300971,38.0737864 13.0048544,38.0737864 C13.7980583,38.0737864 14.4252427,37.4281553 14.4252427,36.6533981 C14.4252427,35.8786408 13.7796117,35.2330097 13.0048544,35.2330097 Z" id="Shape" fill="#231F20"></path>
                        <path d="M74.468932,18.907767 L57.092233,1.53106796 C55.0815534,-0.47961165 51.8165049,-0.47961165 49.8242718,1.53106796 C48.8466019,2.50873786 48.3116505,3.8 48.3116505,5.16504854 C48.3116505,6.53009709 48.8466019,7.82135922 49.8242718,8.79902913 L36.6718447,21.9514563 L13.7058252,23.261165 C10.0165049,23.1873786 6.56699029,24.5893204 3.94757282,27.1902913 C1.42038835,29.7174757 0.0184466019,33.0932039 0.0184466019,36.6902913 C0.0184466019,40.268932 1.42038835,43.6446602 3.94757282,46.1902913 C3.98446602,46.2271845 4.03980583,46.2825243 4.07669903,46.3194175 C4.09514563,46.3378641 4.11359223,46.3747573 4.15048544,46.3932039 L29.6067961,71.8495146 C29.6252427,71.8679612 29.6621359,71.8864078 29.6805825,71.923301 C29.7174757,71.9601942 29.7728155,72.015534 29.8097087,72.0524272 C32.4291262,74.6718447 35.8601942,75.9815534 39.3097087,75.9815534 C42.7407767,75.9815534 46.1902913,74.6718447 48.8097087,72.0524272 C51.4106796,69.4514563 52.8126214,65.9834951 52.738835,62.2941748 L54.0485437,39.3281553 L67.2009709,26.1757282 C69.2116505,28.1864078 72.476699,28.1864078 74.468932,26.1757282 C76.4796117,24.1834951 76.4796117,20.9184466 74.468932,18.907767 Z M3.04368932,36.6902913 C3.04368932,32.668932 6.25339806,28.776699 10.8466019,27.2456311 C12.2669903,26.7660194 13.7427184,26.5446602 15.2368932,26.5446602 C21.6563107,26.5446602 28.5553398,30.8242718 34.4398058,38.6271845 C32.5582524,39.7524272 30.5475728,41.1912621 28.407767,43.0174757 C22.523301,48.0349515 15.9378641,49.4184466 10.3485437,46.8359223 C6.05048544,44.8621359 3.04368932,40.6747573 3.04368932,36.6902913 Z M49.8796117,62.2941748 C49.9533981,65.2087379 48.8466019,67.9572816 46.7805825,70.023301 C42.6669903,74.1368932 35.9524272,74.1368932 31.838835,70.023301 C31.8019417,69.9864078 31.7834951,69.9679612 31.7466019,69.931068 L31.6728155,69.838835 C31.6359223,69.8019417 31.5805825,69.7650485 31.5436893,69.7281553 L12.3592233,50.5436893 C13.5951456,50.838835 14.8679612,50.9864078 16.1592233,50.9864078 C20.8815534,50.9864078 25.7699029,49.0126214 30.2524272,45.1941748 C42.7038835,34.6058252 49.6398058,38.1660194 51.1893204,39.2174757 L49.8796117,62.1834951 C49.8796117,62.2203883 49.8796117,62.2572816 49.8796117,62.2941748 Z M72.4398058,24.1650485 C72.015534,24.5893204 71.4252427,24.8291262 70.8165049,24.8291262 C70.207767,24.8291262 69.6359223,24.5893204 69.1932039,24.1650485 L68.1786408,23.1504854 C67.6252427,22.5970874 66.7213592,22.5970874 66.1495146,23.1504854 L52.5543689,36.7456311 C50.5990291,35.5097087 45.2864078,33.1669903 36.8747573,37.2805825 C36.8378641,37.1699029 36.7825243,37.0776699 36.7087379,36.9854369 C32.6320388,31.5252427 28.1679612,27.7067961 23.4640777,25.5854369 L37.3174757,24.792233 C37.6679612,24.7737864 38,24.6262136 38.2398058,24.3679612 L52.7941748,9.81359223 C53.3475728,9.26019417 53.3475728,8.35631068 52.7941748,7.78446602 L51.7796117,6.76990291 C51.3553398,6.34563107 51.115534,5.75533981 51.115534,5.14660194 C51.115534,4.53786408 51.3553398,3.96601942 51.7796117,3.52330097 C52.6650485,2.63786408 54.1223301,2.63786408 55.007767,3.52330097 L72.384466,20.9 C73.3436893,21.8223301 73.3436893,23.2796117 72.4398058,24.1650485 Z" id="Shape" fill="#231F20"></path>
                        <path d="M60.523301,24.9951456 L53.7902913,31.7281553 C53.2368932,32.2815534 52.3330097,32.2815534 51.761165,31.7281553 C51.207767,31.1747573 51.207767,30.2708738 51.761165,29.6990291 L58.4941748,22.9660194 C59.0475728,22.4126214 59.9514563,22.4126214 60.523301,22.9660194 C61.076699,23.5194175 61.076699,24.423301 60.523301,24.9951456 Z" id="Shape" fill="#231F20"></path>
                        <g transform="translate(40.213592, 11.436893)" fill="#231F20" id="Shape">
                            <path d="M8.17184466,2.52718447 L12.0825243,6.43786408 C12.6359223,6.99126214 13.5398058,6.99126214 14.1116505,6.43786408 C14.6650485,5.88446602 14.6650485,4.98058252 14.1116505,4.40873786 L10.2009709,0.498058252 C9.64757282,-0.0553398058 8.74368932,-0.0553398058 8.17184466,0.498058252 C7.6184466,1.06990291 7.6184466,1.97378641 8.17184466,2.52718447 Z"></path>
                            <path d="M10.2747573,8.22718447 L6.36407767,4.31650485 C5.81067961,3.7631068 4.90679612,3.7631068 4.33495146,4.31650485 C3.7815534,4.86990291 3.7815534,5.77378641 4.33495146,6.34563107 L8.24563107,10.2563107 C8.79902913,10.8097087 9.70291262,10.8097087 10.2747573,10.2563107 C10.8281553,9.70291262 10.8281553,8.79902913 10.2747573,8.22718447 Z"></path>
                            <path d="M6.45631068,12.0640777 L2.54563107,8.15339806 C1.99223301,7.6 1.08834951,7.6 0.516504854,8.15339806 C-0.0368932039,8.70679612 -0.0368932039,9.61067961 0.516504854,10.1825243 L4.42718447,14.0932039 C4.98058252,14.6466019 5.88446602,14.6466019 6.45631068,14.0932039 C7.00970874,13.5213592 7.00970874,12.6174757 6.45631068,12.0640777 Z"></path>
                        </g>
                    </g>
                </g>
                <g id="Rectangle" transform="translate(107.000000, 18.000000)">
                    <g>
                        <mask id="mask-2" fill="white">
                            <use xlink:href="#path-1"></use>
                        </mask>
                        <use id="Mask" fill="#282828" xlink:href="#path-1"></use>
                    </g>
                </g>
            </g>
        </g>
    </g>
</svg>